<?xml version="1.0" encoding="UTF-8"?>
<svg id="Layer_2" data-name="Layer 2" xmlns="http://www.w3.org/2000/svg" viewBox="0 0 284.9 48.66">
  <defs>
    <style>
      .cls-1 {
        fill: #231f20;
      }

      .cls-2 {
        fill: none;
        stroke: #241f21;
        stroke-miterlimit: 10;
      }
    </style>
  </defs>
  <g id="Layer_1-2" data-name="Layer 1">
    <g>
      <g>
        <path class="cls-1" d="M88.19,46.43l-22.2-37.99.12,37.94h-2.52V5.7h3.96l21.78,38.05V5.7h2.52v40.73h-3.66Z"/>
        <path class="cls-1" d="M125.44,31.69c0,8.16-6.66,14.8-14.76,14.8s-14.82-6.64-14.82-14.8,6.66-14.8,14.82-14.8,14.76,6.64,14.76,14.8ZM123.22,31.69c0-6.88-5.64-12.47-12.54-12.47s-12.6,5.59-12.6,12.47,5.64,12.47,12.6,12.47,12.54-5.59,12.54-12.47Z"/>
        <path class="cls-1" d="M142.06,19.28c-5.4.47-9.54,5.01-10.62,10.31v16.84h-2.04v-29.25h2.04v6.82s1.26-2.04,3.12-3.73c2.1-1.86,4.68-2.8,7.5-3.09v2.1Z"/>
        <path class="cls-1" d="M162.1,21.9h-7.44v24.59h-2.4v-24.59h-7.5v-2.39h7.5V5.47h2.34l.06,14.04h7.44v2.39Z"/>
        <path class="cls-1" d="M168.33,27.96v18.47h-2.46V2.61h2.46v20.75s1.5-2.04,3-3.21c2.34-1.81,5.16-2.86,8.04-2.86,4.62,0,8.82,2.51,11.28,6.64,1.14,1.86,1.86,4.02,2.04,6.24,0,.99.12,3.26-.06,16.2h-2.28v-16.96c-.48-5.25-5.88-9.96-10.98-9.96s-9.54,3.5-11.04,8.51Z"/>
        <path class="cls-1" d="M203.49,36.76l-4.02,9.67h-3l17.76-40.97,17.88,40.97h-3.06l-4.2-9.67h-21.36ZM204.45,34.49h19.5l-9.72-22.43-9.78,22.43Z"/>
        <path class="cls-1" d="M246.02,33.56l-7.62,12.94h-2.4l8.82-15.04-8.58-14.39h2.64l7.14,12.24,7.14-12.24h2.7l-8.58,14.39,8.82,15.04h-2.4l-7.68-12.94Z"/>
        <path class="cls-1" d="M259.94,7.04c0-.76.66-1.34,1.38-1.34.78,0,1.38.58,1.38,1.34,0,.7-.6,1.28-1.38,1.28-.72,0-1.38-.58-1.38-1.28ZM262.34,17.3v29.25h-2.4v-29.25h2.4Z"/>
        <path class="cls-1" d="M266.36,42.76l1.02-1.69c2.16,1.92,4.56,3.21,8.76,3.26,3.9-.06,6.54-2.56,6.54-6.24,0-4.84-4.74-5.89-6.66-6-4.14-.23-9.78-1.81-9.78-7.4,0-4.2,3.54-7.75,8.4-7.75,2.7,0,5.52,1.11,7.14,2.68l-1.14,1.98c-1.74-1.63-3.6-2.39-5.94-2.51-3.12,0-6.24,2.04-6.24,5.59,0,3.85,3.42,5.19,6.78,5.36,4.5.23,9.66,2.91,9.66,8.04,0,4.66-3.9,8.27-8.76,8.27-4.02,0-7.92-1.4-9.78-3.61Z"/>
      </g>
      <rect class="cls-1" y=".5" width="13.39" height="13.39"/>
      <rect class="cls-1" x="17.39" y=".5" width="13.39" height="13.39"/>
      <rect class="cls-2" x="34.77" y=".5" width="13.39" height="13.39"/>
      <rect class="cls-1" y="17.89" width="13.39" height="13.39"/>
      <rect class="cls-1" x="17.39" y="17.89" width="13.39" height="13.39"/>
      <rect class="cls-1" x="34.77" y="17.89" width="13.39" height="13.39"/>
      <rect class="cls-1" y="35.27" width="13.39" height="13.39"/>
      <rect class="cls-1" x="17.39" y="35.27" width="13.39" height="13.39"/>
      <rect class="cls-1" x="34.77" y="35.27" width="13.39" height="13.39"/>
    </g>
  </g>
</svg>